<svg width="163" height="82" viewBox="0 0 163 82" fill="none" xmlns="http://www.w3.org/2000/svg">
<g clip-path="url(#clip0_7172_868)">
<path fill-rule="evenodd" clip-rule="evenodd" d="M20.4292 29.7193C20.3668 30.0095 20.3247 30.3359 20.3044 30.6987C20.2841 31.0614 20.2739 31.4096 20.2739 31.7405V33.7312C20.5593 33.6813 20.8403 33.6085 21.114 33.5136C21.6741 33.3278 22.15 33.0783 22.5447 32.7678C22.9379 32.4558 23.2803 32.051 23.5705 31.5533C23.8288 30.9305 23.8566 30.2359 23.6489 29.5945C23.556 29.3043 23.4167 29.0446 23.2281 28.8168C23.0686 28.6151 22.8671 28.4507 22.6375 28.335C22.4461 28.2304 22.2331 28.1713 22.0151 28.1624H21.9846C21.8525 28.1639 21.7214 28.1854 21.5957 28.2262C21.4366 28.279 21.2849 28.3521 21.1445 28.4439C20.8543 28.6296 20.6149 29.0562 20.4292 29.7193ZM31.6901 49.4104C31.8352 49.9298 32.1356 50.3535 32.5926 50.6872L31.5973 52.1484C31.1949 51.871 30.8512 51.517 30.586 51.1066C30.3316 50.7134 30.1278 50.2898 29.9794 49.8457C29.8777 49.4484 29.815 49.0421 29.7923 48.6327C29.7722 48.2495 29.762 47.8658 29.7618 47.4821V44.2159C29.7618 43.386 29.6312 42.6242 29.3729 41.9292C29.1293 41.2621 28.7654 40.6454 28.2992 40.1097C27.4069 39.0316 26.3186 38.4904 25.0345 38.4904C23.7272 38.4904 22.6259 39.0316 21.735 40.1097C21.2997 40.6074 20.9515 41.2037 20.6932 41.8973C20.4335 42.5937 20.2942 43.3337 20.2724 44.1231V51.6188H18.5313V35.7234C18.3507 35.7442 18.169 35.7549 17.9872 35.7553H17.4111V33.9822H17.9872C18.1627 33.9822 18.3441 33.9721 18.5313 33.9517V31.7405C18.5313 31.3879 18.5414 31.0048 18.5618 30.5898C18.5835 30.1749 18.6343 29.7497 18.717 29.313C18.8215 28.8995 18.9869 28.4801 19.2161 28.0535C19.4439 27.6299 19.7762 27.2715 20.2115 26.9798C20.4814 26.7738 20.7716 26.6287 21.0821 26.5445C21.3926 26.4618 21.6944 26.4212 21.9846 26.4212C22.5229 26.4212 23.0104 26.546 23.4472 26.7941C23.8825 27.0437 24.2452 27.3542 24.5354 27.7285C24.8459 28.1 25.0955 28.5208 25.2827 28.988C25.4684 29.4552 25.5627 29.9471 25.5627 30.4651C25.5627 30.777 25.525 31.0919 25.4524 31.414C25.3799 31.7361 25.2609 32.0524 25.0955 32.3629C24.7226 33.0884 24.2351 33.6804 23.6329 34.136C23.0307 34.5931 22.3778 34.9341 21.6741 35.1619C21.4567 35.2482 21.2325 35.3161 21.0037 35.365C20.7658 35.4172 20.522 35.4738 20.2739 35.5362V39.0505C20.3363 39.0316 20.3668 38.9997 20.3668 38.9576C20.9675 38.2945 21.6625 37.7547 22.4504 37.3412C23.2467 36.9237 24.1339 36.7094 25.0331 36.7173C25.9457 36.7173 26.8004 36.9262 27.6013 37.3412C28.3979 37.7547 29.0769 38.2945 29.637 38.9576C30.2377 39.6425 30.7049 40.4361 31.0372 41.3372C31.368 42.2397 31.5349 43.2002 31.5349 44.2159V47.4821C31.5349 47.8346 31.545 48.1771 31.5654 48.5079C31.5871 48.8416 31.6277 49.142 31.6901 49.4104ZM40.9299 49.9081C41.6554 49.9081 42.3461 49.763 42.999 49.4728C43.652 49.1826 44.2222 48.7778 44.7097 48.2598C45.7295 47.1606 46.2915 45.7138 46.2811 44.2145C46.2811 43.4063 46.1404 42.6547 45.8603 41.9597C45.5939 41.2865 45.2036 40.6694 44.7097 40.1401C44.2263 39.6249 43.644 39.2123 42.9976 38.9271C42.3446 38.6369 41.6554 38.4918 40.9299 38.4918C40.2044 38.4918 39.5196 38.6369 38.8768 38.9271C38.234 39.2173 37.6725 39.6221 37.1966 40.1401C36.7178 40.6581 36.3362 41.2646 36.046 41.9597C35.7558 42.6561 35.5991 43.4063 35.5787 44.2145C35.5991 45.0038 35.7543 45.7452 36.046 46.4403C36.3362 47.1353 36.7192 47.7418 37.1966 48.2598C37.6739 48.7778 38.234 49.1826 38.8768 49.4728C39.5196 49.763 40.203 49.9081 40.9299 49.9081ZM40.9299 36.7188C41.8899 36.7113 42.84 36.9128 43.7143 37.3093C44.5647 37.6963 45.3312 38.2459 45.9706 38.9271C47.3088 40.3627 48.0533 42.252 48.0542 44.2145C48.0542 45.2316 47.867 46.1907 47.4941 47.0932C47.1354 47.9726 46.6191 48.779 45.9706 49.4728C45.3316 50.1545 44.5651 50.7042 43.7143 51.0906C42.84 51.4886 41.8891 51.6907 40.9285 51.6826C39.9346 51.6826 39.0016 51.4853 38.1296 51.0906C37.2727 50.7075 36.5007 50.1576 35.8588 49.4728C35.2105 48.7816 34.6986 47.9743 34.3498 47.0932C33.9841 46.1778 33.7994 45.2002 33.8057 44.2145C33.8057 43.1988 33.987 42.2353 34.3512 41.3212C34.714 40.41 35.216 39.6105 35.8602 38.9271C36.5022 38.243 37.2735 37.6931 38.1296 37.3093C39.0098 36.9137 39.9649 36.7123 40.9299 36.7188ZM52.6581 44.2159C52.6492 45.7146 53.211 47.1604 54.2295 48.2598C54.7156 48.7792 55.2858 49.1826 55.9402 49.4728C56.5932 49.763 57.2824 49.9081 58.0093 49.9081C58.7348 49.9081 59.4182 49.763 60.061 49.4728C60.7052 49.1826 61.2653 48.7792 61.7427 48.2598C62.2282 47.7272 62.6127 47.1106 62.8773 46.4403C63.1574 45.7438 63.2967 45.0038 63.2967 44.2159C63.3112 42.7095 62.7561 41.2533 61.7427 40.1387C61.2703 39.6248 60.698 39.2125 60.061 38.9271C59.4182 38.6369 58.7333 38.4918 58.0093 38.4918C57.2824 38.4918 56.5932 38.6369 55.9402 38.9271C55.2873 39.2173 54.7156 39.6221 54.2281 40.1401C53.742 40.6581 53.3575 41.2646 53.0775 41.9597C52.7974 42.6561 52.6581 43.4063 52.6581 44.2159ZM58.0093 36.7188C58.9688 36.7115 59.9184 36.913 60.7923 37.3093C61.6425 37.6965 62.409 38.2461 63.0485 38.9271C64.3873 40.363 65.1323 42.2528 65.1336 44.2159C65.1336 45.2316 64.945 46.1907 64.5721 47.0932C64.2132 47.9725 63.6969 48.7789 63.0485 49.4728C62.4094 50.1544 61.6429 50.704 60.7923 51.0906C59.9186 51.4874 58.9689 51.6889 58.0093 51.6812C56.9298 51.6812 55.9286 51.449 55.0058 50.9818C54.0871 50.5179 53.2763 49.8658 52.6262 49.068V59.4903H50.885V40.7931C50.885 40.0473 50.8125 39.3929 50.6674 38.8343C50.5223 38.3366 50.2321 37.8998 49.7968 37.5269L50.7907 36.0963C51.2057 36.3865 51.5481 36.7347 51.818 37.1381C52.0864 37.5429 52.2736 37.9521 52.3781 38.3671C52.4405 38.5339 52.4811 38.6993 52.5029 38.8647L52.5638 39.3929C53.2186 38.5918 54.0278 37.9305 54.9434 37.4486C55.8897 36.9565 56.9428 36.7058 58.0093 36.7188ZM74.4343 44.8355C74.8493 45.1895 75.2019 45.6045 75.4921 46.0804C75.7823 46.5578 75.9274 47.0961 75.9274 47.6983C75.9274 48.2162 75.8345 48.7357 75.6473 49.2537C75.4601 49.689 75.2062 50.0677 74.8856 50.3884C74.5634 50.7105 74.2051 50.9542 73.8118 51.1211C73.4375 51.3286 73.0283 51.478 72.5829 51.5709C72.1584 51.6624 71.7257 51.7096 71.2915 51.7116C70.1104 51.7116 69.0425 51.4214 68.0878 50.8411C67.6525 50.5509 67.2796 50.1664 66.9676 49.689C66.6571 49.2116 66.5018 48.653 66.5018 48.0102V47.9159L68.2749 47.9783V48.0102C68.2749 48.3004 68.3417 48.5485 68.4766 48.756C68.6116 48.9635 68.8132 49.171 69.0831 49.3785C69.3733 49.5439 69.7099 49.6832 70.0944 49.7993C70.7873 50.0028 71.5211 50.0238 72.2245 49.8602C72.5364 49.7876 72.8165 49.7006 73.066 49.5961C73.542 49.3059 73.8539 48.9737 73.9976 48.5993C74.0817 48.4353 74.1325 48.2801 74.1543 48.135C74.1746 47.9899 74.1847 47.8433 74.1847 47.6983C74.1847 47.3036 74.0295 46.9408 73.719 46.61C73.5241 46.3983 73.305 46.2103 73.066 46.0499C72.7819 45.8541 72.4915 45.6673 72.1955 45.4899C71.5112 45.1161 70.8158 44.7628 70.1104 44.4307C69.3758 44.0866 68.6773 43.67 68.0254 43.1872C67.6069 42.8525 67.2445 42.4534 66.9516 42.0046C66.6469 41.5327 66.4902 40.9804 66.5018 40.4187C66.5018 39.9834 66.5947 39.5264 66.7819 39.0505C66.9384 38.6271 67.1829 38.2418 67.4993 37.9199C67.8157 37.598 68.1968 37.3469 68.6174 37.1831C68.9903 36.977 69.3893 36.8305 69.8144 36.7478C70.7985 36.5587 71.8118 36.5854 72.7845 36.8261C73.3163 36.949 73.8222 37.1646 74.2791 37.4631C74.7347 37.7533 75.1235 38.1378 75.4442 38.6137C75.7663 39.0925 75.9274 39.641 75.9274 40.2635V40.3563H74.1862V40.2635C74.1743 40.0031 74.0931 39.7507 73.9511 39.5322C73.7919 39.3105 73.5978 39.116 73.3765 38.9561C73.0517 38.7762 72.707 38.635 72.3493 38.5354C71.9548 38.4225 71.5465 38.3653 71.1362 38.3656C70.4311 38.3656 69.8405 38.5005 69.3632 38.769C68.9279 38.9982 68.6058 39.3102 68.3997 39.7034C68.3156 39.9733 68.2749 40.2112 68.2749 40.4187C68.2749 40.751 68.42 41.0934 68.7102 41.4446C69.0831 41.8189 69.5808 42.1599 70.2033 42.4719C70.8664 42.8244 71.5773 43.1828 72.3348 43.5456C73.0907 43.9083 73.7915 44.3378 74.4343 44.8355ZM89.5534 48.2264L90.3297 48.7241C89.6663 49.5965 88.83 50.3226 87.8732 50.857C86.8852 51.4095 85.7695 51.6932 84.6375 51.6797C83.677 51.6879 82.7263 51.4863 81.8517 51.0892C81.0017 50.7022 80.2357 50.1526 79.5969 49.4713C78.2683 48.0444 77.5344 46.1641 77.5452 44.2145C77.5452 43.1988 77.7266 42.2339 78.0879 41.3198C78.4349 40.4335 78.9469 39.6211 79.5969 38.9257C80.2366 38.2448 81.003 37.6952 81.8531 37.3078C82.7279 36.9111 83.6785 36.7096 84.639 36.7173C85.778 36.7173 86.8343 36.977 87.8108 37.495C88.7663 37.9977 89.5957 38.71 90.2368 39.5786L89.5201 40.1068L88.8381 40.6683C88.3229 40.0246 87.689 39.4857 86.9707 39.0809C86.2573 38.6852 85.4533 38.4817 84.6375 38.4904C83.9298 38.4884 83.2295 38.6339 82.5812 38.9177C81.9329 39.2015 81.3509 39.6173 80.8723 40.1387C79.8574 41.2519 79.3016 42.7081 79.3168 44.2145C79.3168 45.0023 79.4576 45.7438 79.7376 46.4388C80.0176 47.1353 80.3963 47.7403 80.8723 48.2583C81.3509 48.7797 81.9329 49.1955 82.5812 49.4793C83.2295 49.7631 83.9298 49.9087 84.6375 49.9066C85.4878 49.9066 86.2771 49.7035 87.0026 49.3001C87.7281 48.8953 88.339 48.3628 88.8367 47.6983L89.5534 48.2264ZM98.947 49.9066C99.6725 49.9066 100.363 49.7615 101.016 49.4713C101.669 49.1811 102.239 48.7763 102.728 48.2583C103.214 47.7403 103.599 47.1338 103.877 46.4388C104.157 45.7423 104.298 45.0023 104.298 44.213C104.298 43.4048 104.157 42.6532 103.877 41.9582C103.611 41.285 103.221 40.6678 102.727 40.1387C102.244 39.6237 101.662 39.2112 101.016 38.9257C100.363 38.6355 99.6725 38.4904 98.947 38.4904C98.2215 38.4904 97.5367 38.6355 96.8939 38.9257C96.2511 39.2159 95.6896 39.6207 95.2137 40.1387C94.1972 41.255 93.622 42.7034 93.5958 44.213C93.6115 44.9776 93.77 45.7325 94.063 46.4388C94.3532 47.1338 94.7363 47.7403 95.2137 48.2583C95.691 48.7763 96.2511 49.1811 96.8939 49.4713C97.5367 49.7615 98.2201 49.9066 98.947 49.9066ZM98.947 36.7173C99.9438 36.7173 100.871 36.9146 101.731 37.3078C102.582 37.6948 103.348 38.2444 103.988 38.9257C104.638 39.6236 105.154 40.4351 105.511 41.3198C105.884 42.2339 106.071 43.1988 106.071 44.213C106.071 45.2301 105.884 46.1892 105.511 47.0917C105.152 47.9709 104.636 48.7773 103.988 49.4713C103.349 50.1532 102.582 50.7028 101.731 51.0892C100.858 51.487 99.9072 51.689 98.947 51.6812C97.9823 51.688 97.0275 51.486 96.1481 51.0892C95.2911 50.7063 94.5191 50.1563 93.8773 49.4713C93.2291 48.7802 92.7171 47.9728 92.3683 47.0917C92.0019 46.1765 91.8166 45.1989 91.8227 44.213C91.8145 42.2542 92.5486 40.365 93.8773 38.9257C94.5195 38.2412 95.2914 37.6913 96.1481 37.3078C97.0283 36.9121 97.982 36.7106 98.947 36.7173ZM111.608 35.1604H115.87V36.903H111.608V47.6359C111.608 47.9884 111.618 48.3323 111.64 48.6631C111.66 48.994 111.713 49.3059 111.795 49.5961C111.878 49.866 111.977 50.104 112.091 50.3115C112.205 50.5189 112.396 50.7061 112.666 50.8701L111.703 52.3646C111.278 52.0864 110.913 51.7269 110.629 51.3068C110.368 50.9136 110.179 50.5088 110.053 50.0938C109.95 49.6811 109.888 49.2592 109.867 48.8344C109.846 48.4352 109.835 48.0356 109.835 47.6359V36.903H107.099V35.1619H109.835V30.4955H111.608V35.1604ZM126.415 48.2264L127.193 48.7241C126.53 49.5963 125.693 50.3224 124.737 50.857C123.749 51.4095 122.633 51.6932 121.501 51.6797C120.541 51.6879 119.591 51.4863 118.716 51.0892C117.866 50.7026 117.099 50.1529 116.46 49.4713C115.132 48.0444 114.398 46.1641 114.409 44.2145C114.409 43.1988 114.59 42.2339 114.951 41.3198C115.298 40.4336 115.81 39.6212 116.46 38.9257C117.1 38.2446 117.866 37.695 118.716 37.3078C119.591 36.911 120.542 36.7095 121.502 36.7173C122.641 36.7173 123.698 36.977 124.674 37.495C125.63 37.9978 126.46 38.7101 127.102 39.5786L126.383 40.1068L125.701 40.6683C125.186 40.0246 124.552 39.4857 123.834 39.0809C123.121 38.6852 122.317 38.4817 121.501 38.4904C120.775 38.4904 120.085 38.6355 119.432 38.9257C118.779 39.2159 118.213 39.6207 117.736 40.1387C116.722 41.2527 116.167 42.7085 116.182 44.2145C116.174 45.7097 116.729 47.1531 117.736 48.2583C118.213 48.7763 118.779 49.1811 119.432 49.4713C120.085 49.7615 120.774 49.9066 121.501 49.9066C122.351 49.9066 123.141 49.7035 123.866 49.3001C124.591 48.8953 125.202 48.3628 125.7 47.6983L126.415 48.2264ZM131.798 29.7178C131.736 30.008 131.694 30.3345 131.674 30.6972C131.652 31.06 131.642 31.4082 131.642 31.739V33.7312C131.973 33.6688 132.254 33.5963 132.483 33.5136C133.042 33.3278 133.518 33.0783 133.914 32.7678C134.306 32.4558 134.648 32.051 134.94 31.5533C135.199 30.9306 135.227 30.2358 135.018 29.5945C134.928 29.3111 134.785 29.0472 134.597 28.8168C134.438 28.615 134.237 28.4505 134.007 28.335C133.815 28.2303 133.601 28.1712 133.383 28.1624H133.354C133.221 28.1637 133.09 28.1852 132.964 28.2262C132.805 28.2792 132.654 28.3524 132.514 28.4439C132.224 28.6296 131.984 29.0562 131.797 29.7193L131.798 29.7178ZM143.059 49.4089C143.205 49.9284 143.505 50.3521 143.961 50.6858L142.967 52.1469C142.564 51.8702 142.22 51.516 141.955 51.1051C141.7 50.7122 141.497 50.2885 141.349 49.8442C141.246 49.4471 141.183 49.0408 141.16 48.6312C141.14 48.248 141.131 47.8643 141.131 47.4806V44.2159C141.131 43.386 141.001 42.6242 140.742 41.9292C140.498 41.2624 140.134 40.6458 139.669 40.1097C138.776 39.0316 137.688 38.4904 136.402 38.4904C135.095 38.4904 133.994 39.0316 133.104 40.1097C132.669 40.6074 132.321 41.2037 132.061 41.8973C131.803 42.5937 131.662 43.3337 131.642 44.1231V51.6188H129.901V35.7234C129.72 35.7442 129.538 35.7548 129.356 35.7553H128.779V33.9822H129.356C129.531 33.9822 129.713 33.9721 129.901 33.9517V31.7405C129.901 31.3879 129.909 31.0048 129.93 30.5898C129.951 30.1749 130.004 29.7497 130.086 29.313C130.191 28.8995 130.356 28.4801 130.584 28.0535C130.813 27.6299 131.144 27.2715 131.581 26.9798C131.849 26.7738 132.141 26.6287 132.451 26.5445C132.762 26.4618 133.062 26.4212 133.354 26.4212C133.892 26.4212 134.38 26.546 134.815 26.7941C135.25 27.0437 135.613 27.3542 135.903 27.7285C136.215 28.1 136.463 28.5208 136.651 28.988C136.838 29.4552 136.931 29.9471 136.931 30.4651C136.931 30.777 136.894 31.0919 136.822 31.414C136.749 31.7361 136.63 32.0524 136.463 32.3629C136.092 33.0884 135.603 33.6804 135.001 34.136C134.411 34.5866 133.748 34.9335 133.042 35.1619C132.825 35.248 132.601 35.3159 132.373 35.365C132.135 35.4172 131.891 35.4738 131.642 35.5362V39.0505C131.704 39.0316 131.736 38.9997 131.736 38.9576C132.337 38.2945 133.03 37.7547 133.82 37.3412C134.616 36.9236 135.503 36.7093 136.402 36.7173C137.314 36.7173 138.17 36.9262 138.968 37.3412C139.747 37.7401 140.44 38.2895 141.006 38.9576C141.607 39.6425 142.074 40.4361 142.407 41.3372C142.737 42.2397 142.904 43.2002 142.904 44.2159V47.4821C142.904 47.8346 142.913 48.1771 142.933 48.5079C142.955 48.8416 142.997 49.142 143.059 49.4104V49.4089ZM51.3494 31.4314L50.7138 30.7349C50.7283 30.7204 51.0998 30.3838 51.7629 29.8484L52.3563 30.5811C51.7179 31.0977 51.3537 31.4285 51.3494 31.4314ZM132.758 21.7491C132.758 21.7418 132.749 21.2383 132.698 20.4287L133.638 20.3678C133.693 21.2122 133.701 21.7346 133.701 21.7346L132.758 21.7491ZM128.75 8.66277C128.094 8.24779 127.344 8.12301 126.555 8.23909L126.417 7.30611C127.43 7.15521 128.408 7.32933 129.255 7.86619L128.75 8.66422V8.66277ZM122.315 10.6941L121.668 10.0064C122.399 9.31716 123.119 8.75128 123.809 8.32324L124.306 9.12563C123.67 9.52029 123 10.0484 122.315 10.6941ZM131.363 12.7545C131.105 11.9483 130.764 11.1712 130.345 10.4359L131.157 9.95704C131.568 10.6535 131.939 11.4951 132.257 12.4571L131.363 12.7531V12.7545ZM118.936 14.6219L118.177 14.0604C118.754 13.2783 119.294 12.592 119.828 11.9652L120.548 12.5746C120.028 13.1869 119.5 13.8572 118.936 14.6219ZM132.447 17.8126C132.339 16.9528 132.197 16.0975 132.022 15.2487L132.945 15.0557C133.117 15.8785 133.264 16.765 133.383 17.6922L132.447 17.8126ZM115.984 18.956L115.191 18.4467C115.667 17.7031 116.152 16.9649 116.646 16.2325L117.427 16.7606C116.927 17.5006 116.446 18.2392 115.984 18.956ZM103.104 19.1286C102.313 18.8633 101.489 18.7071 100.655 18.6643L100.708 17.7241C101.627 17.7715 102.535 17.9438 103.407 18.2363L103.104 19.1286ZM95.9275 19.9557L95.4487 19.1417C96.2336 18.6684 97.0731 18.2923 97.9487 18.0215L98.2172 18.9255C97.415 19.1747 96.6461 19.5206 95.9275 19.9557ZM107.125 22.0059C106.589 21.3574 105.976 20.7761 105.301 20.2749L105.857 19.5131C106.556 20.0239 107.206 20.6405 107.844 21.3994L107.125 22.0059ZM91.8895 23.1464L91.2322 22.4702C91.9171 21.8086 92.5903 21.2079 93.2346 20.6899L93.8265 21.4241C93.2041 21.9261 92.5526 22.505 91.8895 23.1464ZM113.111 23.4017L112.335 22.8678C112.792 22.2032 113.296 21.4197 113.772 20.6739L114.568 21.1803C114.086 21.9348 113.577 22.7256 113.111 23.4017ZM71.2364 23.7239C70.3931 23.5958 69.5413 23.5328 68.6885 23.5352V22.5921C69.6171 22.5921 70.5239 22.6588 71.3815 22.7923L71.2364 23.7239ZM63.6391 24.3115L63.3677 23.409C64.2289 23.1492 65.1062 22.9466 65.994 22.8025L66.1406 23.734C65.295 23.8715 64.4594 24.0644 63.6391 24.3115ZM75.981 25.4244C75.2592 24.9853 74.4939 24.622 73.6972 24.3405L74.0121 23.4511C74.8704 23.7547 75.695 24.1461 76.4729 24.6191L75.981 25.4244ZM110.669 25.7334C109.899 25.7334 109.333 25.021 108.671 24.0895L109.44 23.5439C109.75 23.9792 110.324 24.7874 110.659 24.7903C110.655 24.7903 110.749 24.7236 110.825 24.6757L111.507 25.2967C111.303 25.4998 111.063 25.7334 110.669 25.7334ZM58.8625 26.2892L58.4257 25.4534C59.2155 25.0402 60.0225 24.6606 60.8445 24.3158L61.2072 25.1864C60.4411 25.5056 59.6504 25.8771 58.8625 26.2892ZM88.368 27.0001L87.6425 26.3994C88.2461 25.6711 88.8163 25.0123 89.3837 24.3898L90.0801 25.0239C89.5244 25.6362 88.9629 26.2819 88.368 27.0001ZM79.6955 28.8545C79.1868 28.173 78.6187 27.5379 77.9979 26.9566L78.6392 26.2645C79.2762 26.8594 79.8842 27.5385 80.4486 28.2872L79.6955 28.8545ZM54.4298 29.0126L53.8857 28.2422C54.6106 27.7291 55.3514 27.2389 56.1071 26.7723L56.6019 27.5762C55.8749 28.0245 55.1436 28.5077 54.4298 29.0126ZM85.231 31.0193L84.4837 30.4433L84.7841 30.0182C85.1468 29.5422 85.5487 29.0199 85.9811 28.4656L86.724 29.046C86.2945 29.5974 85.8955 30.1197 85.5328 30.5913L85.231 31.0193ZM82.9515 33.3148C82.4146 33.3148 82.0954 32.7605 81.473 31.6563C81.3598 31.4575 81.2379 31.2413 81.1059 31.0135L81.9213 30.5391C82.0563 30.7712 82.1796 30.9903 82.2942 31.192C82.5873 31.7129 82.921 32.3005 83.0632 32.3978C83.1116 32.3464 83.1629 32.2979 83.217 32.2527C83.217 32.2527 83.7858 32.6734 83.7583 32.685C83.7583 32.685 83.4869 33.3148 82.9515 33.3148Z" fill="#0F172A"/>
</g>
<defs>
<clipPath id="clip0_7172_868">
<rect width="162.509" height="81.2544" fill="white"/>
</clipPath>
</defs>
</svg>
