<svg width="163" height="82" viewBox="0 0 163 82" fill="none" xmlns="http://www.w3.org/2000/svg">
<g clip-path="url(#clip0_7431_171)">
<path fill-rule="evenodd" clip-rule="evenodd" d="M20.4292 29.8625C20.3668 30.1526 20.3247 30.4791 20.3044 30.8419C20.2841 31.2046 20.2739 31.5528 20.2739 31.8837V33.8744C20.5593 33.8244 20.8403 33.7517 21.114 33.6567C21.6741 33.471 22.15 33.2215 22.5447 32.9109C22.9379 32.599 23.2803 32.1942 23.5705 31.6965C23.8288 31.0737 23.8566 30.3791 23.6489 29.7377C23.556 29.4475 23.4167 29.1878 23.2281 28.9599C23.0686 28.7583 22.8671 28.5939 22.6375 28.4782C22.4461 28.3736 22.2331 28.3145 22.0151 28.3056H21.9846C21.8525 28.307 21.7214 28.3286 21.5957 28.3694C21.4366 28.4222 21.2849 28.4953 21.1445 28.5871C20.8543 28.7728 20.6149 29.1994 20.4292 29.8625ZM31.6901 49.5536C31.8352 50.073 32.1356 50.4967 32.5926 50.8304L31.5973 52.2916C31.1949 52.0142 30.8512 51.6602 30.586 51.2498C30.3316 50.8566 30.1278 50.433 29.9794 49.9889C29.8777 49.5916 29.815 49.1853 29.7923 48.7759C29.7722 48.3926 29.762 48.009 29.7618 47.6252V44.3591C29.7618 43.5292 29.6312 42.7674 29.3729 42.0724C29.1293 41.4053 28.7654 40.7886 28.2992 40.2529C27.4069 39.1748 26.3186 38.6336 25.0345 38.6336C23.7272 38.6336 22.6259 39.1748 21.735 40.2529C21.2997 40.7505 20.9515 41.3469 20.6932 42.0405C20.4335 42.7369 20.2942 43.4769 20.2724 44.2662V51.762H18.5313V35.8666C18.3507 35.8874 18.169 35.898 17.9872 35.8985H17.4111V34.1254H17.9872C18.1627 34.1254 18.3441 34.1153 18.5313 34.0949V31.8837C18.5313 31.5311 18.5414 31.148 18.5618 30.733C18.5835 30.3181 18.6343 29.8929 18.717 29.4562C18.8215 29.0427 18.9869 28.6233 19.2161 28.1967C19.4439 27.7731 19.7762 27.4147 20.2115 27.123C20.4814 26.917 20.7716 26.7719 21.0821 26.6877C21.3926 26.605 21.6944 26.5644 21.9846 26.5644C22.5229 26.5644 23.0104 26.6892 23.4472 26.9373C23.8825 27.1869 24.2452 27.4974 24.5354 27.8717C24.8459 28.2432 25.0955 28.664 25.2827 29.1312C25.4684 29.5984 25.5627 30.0903 25.5627 30.6083C25.5627 30.9202 25.525 31.2351 25.4524 31.5572C25.3799 31.8793 25.2609 32.1956 25.0955 32.5061C24.7226 33.2316 24.2351 33.8236 23.6329 34.2792C23.0307 34.7363 22.3778 35.0772 21.6741 35.305C21.4567 35.3914 21.2325 35.4593 21.0037 35.5082C20.7658 35.5604 20.522 35.617 20.2739 35.6794V39.1937C20.3363 39.1748 20.3668 39.1429 20.3668 39.1008C20.9675 38.4377 21.6625 37.8979 22.4504 37.4844C23.2467 37.0669 24.1339 36.8526 25.0331 36.8605C25.9457 36.8605 26.8004 37.0694 27.6013 37.4844C28.3979 37.8979 29.0769 38.4377 29.637 39.1008C30.2377 39.7856 30.7049 40.5793 31.0372 41.4804C31.368 42.3829 31.5349 43.3434 31.5349 44.3591V47.6252C31.5349 47.9778 31.545 48.3203 31.5654 48.6511C31.5871 48.9848 31.6277 49.2852 31.6901 49.5536ZM40.9299 50.0513C41.6554 50.0513 42.3461 49.9062 42.999 49.616C43.652 49.3258 44.2222 48.921 44.7097 48.403C45.7295 47.3038 46.2915 45.857 46.2811 44.3577C46.2811 43.5495 46.1404 42.7979 45.8603 42.1028C45.5939 41.4297 45.2036 40.8126 44.7097 40.2833C44.2263 39.7681 43.644 39.3555 42.9976 39.0703C42.3446 38.7801 41.6554 38.635 40.9299 38.635C40.2044 38.635 39.5196 38.7801 38.8768 39.0703C38.234 39.3605 37.6725 39.7653 37.1966 40.2833C36.7178 40.8013 36.3362 41.4078 36.046 42.1028C35.7558 42.7993 35.5991 43.5495 35.5787 44.3577C35.5991 45.147 35.7543 45.8884 36.046 46.5834C36.3362 47.2785 36.7192 47.885 37.1966 48.403C37.6739 48.921 38.234 49.3258 38.8768 49.616C39.5196 49.9062 40.203 50.0513 40.9299 50.0513ZM40.9299 36.8619C41.8899 36.8545 42.84 37.056 43.7143 37.4525C44.5647 37.8395 45.3312 38.3891 45.9706 39.0703C47.3088 40.5059 48.0533 42.3951 48.0542 44.3577C48.0542 45.3748 47.867 46.3339 47.4941 47.2364C47.1354 48.1157 46.6191 48.9222 45.9706 49.616C45.3316 50.2977 44.5651 50.8474 43.7143 51.2338C42.84 51.6318 41.8891 51.8338 40.9285 51.8258C39.9346 51.8258 39.0016 51.6285 38.1296 51.2338C37.2727 50.8507 36.5007 50.3007 35.8588 49.616C35.2105 48.9248 34.6986 48.1175 34.3498 47.2364C33.9841 46.321 33.7994 45.3434 33.8057 44.3577C33.8057 43.342 33.987 42.3785 34.3512 41.4644C34.714 40.5532 35.216 39.7537 35.8602 39.0703C36.5022 38.3862 37.2735 37.8363 38.1296 37.4525C39.0098 37.0569 39.9649 36.8555 40.9299 36.8619ZM52.6581 44.3591C52.6492 45.8577 53.211 47.3036 54.2295 48.403C54.7156 48.9224 55.2858 49.3258 55.9402 49.616C56.5932 49.9062 57.2824 50.0513 58.0093 50.0513C58.7348 50.0513 59.4182 49.9062 60.061 49.616C60.7052 49.3258 61.2653 48.9224 61.7427 48.403C62.2282 47.8704 62.6127 47.2538 62.8773 46.5834C63.1574 45.887 63.2967 45.147 63.2967 44.3591C63.3112 42.8527 62.7561 41.3965 61.7427 40.2819C61.2703 39.7679 60.698 39.3557 60.061 39.0703C59.4182 38.7801 58.7333 38.635 58.0093 38.635C57.2824 38.635 56.5932 38.7801 55.9402 39.0703C55.2873 39.3605 54.7156 39.7653 54.2281 40.2833C53.742 40.8013 53.3575 41.4078 53.0775 42.1028C52.7974 42.7993 52.6581 43.5495 52.6581 44.3591ZM58.0093 36.8619C58.9688 36.8547 59.9184 37.0562 60.7923 37.4525C61.6425 37.8397 62.409 38.3893 63.0485 39.0703C64.3873 40.5062 65.1323 42.3959 65.1336 44.3591C65.1336 45.3748 64.945 46.3339 64.5721 47.2364C64.2132 48.1157 63.6969 48.9221 63.0485 49.616C62.4094 50.2975 61.6429 50.8472 60.7923 51.2338C59.9186 51.6306 58.9689 51.8321 58.0093 51.8244C56.9298 51.8244 55.9286 51.5922 55.0058 51.125C54.0871 50.6611 53.2763 50.009 52.6262 49.2112V59.6335H50.885V40.9363C50.885 40.1905 50.8125 39.5361 50.6674 38.9775C50.5223 38.4798 50.2321 38.043 49.7968 37.6701L50.7907 36.2395C51.2057 36.5297 51.5481 36.8779 51.818 37.2813C52.0864 37.6861 52.2736 38.0953 52.3781 38.5102C52.4405 38.6771 52.4811 38.8425 52.5029 39.0079L52.5638 39.5361C53.2186 38.7349 54.0278 38.0737 54.9434 37.5918C55.8897 37.0997 56.9428 36.849 58.0093 36.8619ZM74.4343 44.9787C74.8493 45.3327 75.2019 45.7477 75.4921 46.2236C75.7823 46.701 75.9274 47.2393 75.9274 47.8414C75.9274 48.3594 75.8345 48.8789 75.6473 49.3969C75.4601 49.8322 75.2062 50.2109 74.8856 50.5315C74.5634 50.8537 74.2051 51.0974 73.8118 51.2643C73.4375 51.4718 73.0283 51.6212 72.5829 51.7141C72.1584 51.8056 71.7257 51.8527 71.2915 51.8548C70.1104 51.8548 69.0425 51.5646 68.0878 50.9842C67.6525 50.6941 67.2796 50.3095 66.9676 49.8322C66.6571 49.3548 66.5018 48.7962 66.5018 48.1534V48.0591L68.2749 48.1215V48.1534C68.2749 48.4436 68.3417 48.6917 68.4766 48.8992C68.6116 49.1067 68.8132 49.3142 69.0831 49.5217C69.3733 49.6871 69.7099 49.8264 70.0944 49.9424C70.7873 50.146 71.5211 50.167 72.2245 50.0034C72.5364 49.9308 72.8165 49.8438 73.066 49.7393C73.542 49.4491 73.8539 49.1168 73.9976 48.7425C74.0817 48.5785 74.1325 48.4233 74.1543 48.2782C74.1746 48.1331 74.1847 47.9865 74.1847 47.8414C74.1847 47.4468 74.0295 47.084 73.719 46.7532C73.5241 46.5415 73.305 46.3535 73.066 46.1931C72.7819 45.9972 72.4915 45.8105 72.1955 45.6331C71.5112 45.2592 70.8158 44.906 70.1104 44.5739C69.3758 44.2298 68.6773 43.8132 68.0254 43.3304C67.6069 42.9957 67.2445 42.5965 66.9517 42.1478C66.6469 41.6759 66.4903 41.1236 66.5018 40.5619C66.5018 40.1266 66.5947 39.6696 66.7819 39.1937C66.9384 38.7703 67.1829 38.385 67.4993 38.0631C67.8157 37.7412 68.1968 37.4901 68.6174 37.3262C68.9903 37.1202 69.3893 36.9737 69.8144 36.891C70.7985 36.7018 71.8118 36.7286 72.7846 36.9693C73.3163 37.0922 73.8222 37.3078 74.2791 37.6063C74.7347 37.8965 75.1235 38.281 75.4442 38.7569C75.7663 39.2357 75.9274 39.7842 75.9274 40.4067V40.4995H74.1862V40.4067C74.1743 40.1463 74.0931 39.8939 73.9511 39.6754C73.7919 39.4537 73.5978 39.2592 73.3765 39.0993C73.0517 38.9194 72.707 38.7782 72.3493 38.6786C71.9548 38.5657 71.5465 38.5085 71.1363 38.5088C70.4311 38.5088 69.8405 38.6437 69.3632 38.9122C68.9279 39.1414 68.6058 39.4534 68.3997 39.8466C68.3156 40.1165 68.2749 40.3544 68.2749 40.5619C68.2749 40.8942 68.42 41.2366 68.7102 41.5878C69.0831 41.9621 69.5808 42.3031 70.2033 42.615C70.8664 42.9676 71.5773 43.326 72.3348 43.6888C73.0907 44.0515 73.7915 44.481 74.4343 44.9787ZM89.5534 48.3696L90.3297 48.8673C89.6663 49.7397 88.83 50.4658 87.8732 51.0002C86.8852 51.5527 85.7695 51.8364 84.6375 51.8229C83.677 51.8311 82.7263 51.6295 81.8517 51.2324C81.0017 50.8454 80.2357 50.2958 79.5969 49.6145C78.2683 48.1876 77.5344 46.3073 77.5452 44.3577C77.5452 43.342 77.7266 42.3771 78.0879 41.463C78.4349 40.5767 78.9469 39.7643 79.5969 39.0689C80.2366 38.388 81.003 37.8384 81.8531 37.451C82.7279 37.0543 83.6785 36.8528 84.639 36.8605C85.778 36.8605 86.8343 37.1202 87.8108 37.6382C88.7663 38.1408 89.5957 38.8532 90.2368 39.7218L89.5201 40.25L88.8381 40.8115C88.3229 40.1678 87.689 39.6289 86.9707 39.2241C86.2573 38.8284 85.4533 38.6249 84.6375 38.6336C83.9298 38.6316 83.2295 38.7771 82.5812 39.0609C81.9329 39.3447 81.3509 39.7605 80.8723 40.2819C79.8574 41.3951 79.3016 42.8513 79.3168 44.3577C79.3168 45.1455 79.4576 45.887 79.7376 46.582C80.0176 47.2785 80.3963 47.8835 80.8723 48.4015C81.3509 48.9229 81.9329 49.3387 82.5812 49.6225C83.2295 49.9063 83.9298 50.0518 84.6375 50.0498C85.4878 50.0498 86.2771 49.8467 87.0026 49.4433C87.7281 49.0385 88.339 48.506 88.8367 47.8414L89.5534 48.3696ZM98.947 50.0498C99.6725 50.0498 100.363 49.9047 101.016 49.6145C101.669 49.3243 102.239 48.9195 102.728 48.4015C103.214 47.8835 103.599 47.277 103.877 46.582C104.157 45.8855 104.298 45.1455 104.298 44.3562C104.298 43.548 104.157 42.7964 103.877 42.1014C103.611 41.4282 103.221 40.811 102.727 40.2819C102.244 39.7669 101.662 39.3544 101.016 39.0689C100.363 38.7787 99.6725 38.6336 98.947 38.6336C98.2215 38.6336 97.5367 38.7787 96.8939 39.0689C96.2511 39.3591 95.6896 39.7639 95.2137 40.2819C94.1972 41.3982 93.622 42.8466 93.5958 44.3562C93.6115 45.1208 93.77 45.8757 94.0631 46.582C94.3532 47.277 94.7363 47.8835 95.2137 48.4015C95.691 48.9195 96.2511 49.3243 96.8939 49.6145C97.5367 49.9047 98.2201 50.0498 98.947 50.0498ZM98.947 36.8605C99.9438 36.8605 100.871 37.0578 101.731 37.451C102.582 37.838 103.348 38.3876 103.988 39.0689C104.638 39.7668 105.154 40.5783 105.511 41.463C105.884 42.3771 106.071 43.342 106.071 44.3562C106.071 45.3733 105.884 46.3324 105.511 47.2349C105.152 48.1141 104.636 48.9204 103.988 49.6145C103.349 50.2964 102.582 50.846 101.731 51.2324C100.858 51.6302 99.9072 51.8322 98.947 51.8244C97.9823 51.8312 97.0275 51.6292 96.1481 51.2324C95.2911 50.8495 94.5191 50.2995 93.8773 49.6145C93.2291 48.9233 92.7171 48.116 92.3683 47.2349C92.0019 46.3197 91.8166 45.342 91.8227 44.3562C91.8145 42.3974 92.5486 40.5082 93.8773 39.0689C94.5195 38.3844 95.2914 37.8345 96.1481 37.451C97.0283 37.0552 97.982 36.8538 98.947 36.8605ZM111.608 35.3036H115.87V37.0462H111.608V47.779C111.608 48.1316 111.618 48.4755 111.64 48.8063C111.66 49.1372 111.713 49.4491 111.795 49.7393C111.878 50.0092 111.977 50.2471 112.091 50.4546C112.205 50.6621 112.396 50.8493 112.666 51.0133L111.703 52.5078C111.278 52.2296 110.913 51.8701 110.629 51.45C110.368 51.0568 110.179 50.652 110.053 50.237C109.95 49.8243 109.888 49.4024 109.867 48.9775C109.846 48.5784 109.835 48.1788 109.835 47.779V37.0462H107.099V35.305H109.835V30.6387H111.608V35.3036ZM126.415 48.3696L127.193 48.8673C126.53 49.7395 125.693 50.4656 124.737 51.0002C123.749 51.5527 122.633 51.8364 121.501 51.8229C120.541 51.831 119.591 51.6295 118.717 51.2324C117.866 50.8458 117.099 50.2961 116.46 49.6145C115.132 48.1876 114.398 46.3073 114.409 44.3577C114.409 43.342 114.59 42.3771 114.951 41.463C115.298 40.5768 115.81 39.7644 116.46 39.0689C117.1 38.3878 117.866 37.8382 118.717 37.451C119.591 37.0542 120.542 36.8527 121.502 36.8605C122.641 36.8605 123.698 37.1202 124.674 37.6382C125.63 38.141 126.46 38.8533 127.102 39.7218L126.383 40.25L125.701 40.8115C125.186 40.1678 124.552 39.6289 123.834 39.2241C123.121 38.8284 122.317 38.6249 121.501 38.6336C120.775 38.6336 120.085 38.7787 119.432 39.0689C118.779 39.3591 118.213 39.7639 117.736 40.2819C116.722 41.3959 116.167 42.8517 116.182 44.3577C116.174 45.8529 116.729 47.2963 117.736 48.4015C118.213 48.9195 118.779 49.3243 119.432 49.6145C120.085 49.9047 120.774 50.0498 121.501 50.0498C122.351 50.0498 123.141 49.8467 123.866 49.4433C124.591 49.0385 125.202 48.506 125.7 47.8414L126.415 48.3696ZM131.798 29.861C131.736 30.1512 131.694 30.4777 131.674 30.8404C131.652 31.2032 131.642 31.5514 131.642 31.8822V33.8744C131.973 33.812 132.254 33.7394 132.483 33.6567C133.042 33.471 133.518 33.2215 133.914 32.9109C134.306 32.599 134.648 32.1942 134.94 31.6965C135.199 31.0738 135.227 30.379 135.018 29.7377C134.928 29.4543 134.785 29.1904 134.597 28.9599C134.438 28.7581 134.237 28.5937 134.007 28.4782C133.815 28.3735 133.601 28.3144 133.383 28.3056H133.354C133.221 28.3069 133.09 28.3284 132.964 28.3694C132.805 28.4224 132.654 28.4955 132.514 28.5871C132.224 28.7728 131.984 29.1994 131.797 29.8625L131.798 29.861ZM143.059 49.5521C143.205 50.0716 143.505 50.4953 143.961 50.829L142.967 52.2901C142.564 52.0133 142.22 51.6592 141.955 51.2483C141.7 50.8554 141.497 50.4317 141.349 49.9874C141.246 49.5902 141.183 49.184 141.16 48.7744C141.14 48.3912 141.131 48.0075 141.131 47.6238V44.3591C141.131 43.5292 141.001 42.7674 140.742 42.0724C140.498 41.4056 140.134 40.789 139.669 40.2529C138.776 39.1748 137.688 38.6336 136.402 38.6336C135.095 38.6336 133.994 39.1748 133.104 40.2529C132.669 40.7505 132.321 41.3469 132.061 42.0405C131.803 42.7369 131.662 43.4769 131.642 44.2662V51.762H129.901V35.8666C129.72 35.8874 129.538 35.898 129.356 35.8985H128.779V34.1254H129.356C129.531 34.1254 129.713 34.1153 129.901 34.0949V31.8837C129.901 31.5311 129.909 31.148 129.93 30.733C129.951 30.3181 130.004 29.8929 130.086 29.4562C130.191 29.0427 130.356 28.6233 130.584 28.1967C130.813 27.7731 131.144 27.4147 131.581 27.123C131.849 26.917 132.141 26.7719 132.451 26.6877C132.762 26.605 133.062 26.5644 133.354 26.5644C133.892 26.5644 134.38 26.6892 134.815 26.9373C135.25 27.1869 135.613 27.4974 135.903 27.8717C136.215 28.2432 136.463 28.664 136.651 29.1312C136.838 29.5984 136.931 30.0903 136.931 30.6083C136.931 30.9202 136.894 31.2351 136.822 31.5572C136.749 31.8793 136.63 32.1956 136.463 32.5061C136.092 33.2316 135.603 33.8236 135.001 34.2792C134.411 34.7298 133.748 35.0767 133.042 35.305C132.825 35.3912 132.601 35.4591 132.373 35.5082C132.135 35.5604 131.891 35.617 131.642 35.6794V39.1937C131.704 39.1748 131.736 39.1429 131.736 39.1008C132.337 38.4377 133.03 37.8979 133.82 37.4844C134.616 37.0668 135.503 36.8525 136.402 36.8605C137.314 36.8605 138.17 37.0694 138.968 37.4844C139.747 37.8833 140.44 38.4327 141.006 39.1008C141.607 39.7856 142.074 40.5793 142.407 41.4804C142.737 42.3829 142.904 43.3434 142.904 44.3591V47.6252C142.904 47.9778 142.913 48.3203 142.933 48.6511C142.955 48.9848 142.997 49.2852 143.059 49.5536V49.5521ZM51.3494 31.5746L50.7138 30.8781C50.7283 30.8636 51.0998 30.527 51.7629 29.9916L52.3563 30.7243C51.7179 31.2409 51.3537 31.5717 51.3494 31.5746ZM132.758 21.8923C132.758 21.885 132.749 21.3815 132.698 20.5719L133.638 20.5109C133.693 21.3554 133.701 21.8778 133.701 21.8778L132.758 21.8923ZM128.75 8.80596C128.094 8.39098 127.344 8.2662 126.555 8.38227L126.417 7.4493C127.43 7.2984 128.408 7.47252 129.255 8.00938L128.75 8.80741V8.80596ZM122.315 10.8373L121.668 10.1496C122.399 9.46035 123.119 8.89447 123.809 8.46643L124.306 9.26882C123.67 9.66348 123 10.1916 122.315 10.8373ZM131.363 12.8977C131.105 12.0915 130.764 11.3144 130.345 10.579L131.157 10.1002C131.568 10.7967 131.939 11.6383 132.257 12.6002L131.363 12.8962V12.8977ZM118.936 14.7651L118.177 14.2036C118.754 13.4215 119.294 12.7352 119.828 12.1084L120.548 12.7178C120.028 13.3301 119.5 14.0004 118.936 14.7651ZM132.447 17.9558C132.339 17.096 132.197 16.2407 132.022 15.3919L132.945 15.1989C133.117 16.0216 133.264 16.9082 133.383 17.8354L132.447 17.9558ZM115.984 19.0991L115.191 18.5899C115.667 17.8462 116.152 17.1081 116.646 16.3757L117.427 16.9038C116.927 17.6438 116.446 18.3824 115.984 19.0991ZM103.104 19.2718C102.313 19.0065 101.489 18.8503 100.655 18.8075L100.708 17.8673C101.627 17.9146 102.535 18.087 103.407 18.3795L103.104 19.2718ZM95.9275 20.0989L95.4487 19.2849C96.2336 18.8116 97.0731 18.4355 97.9487 18.1647L98.2172 19.0687C97.415 19.3179 96.6461 19.6638 95.9275 20.0989ZM107.125 22.1491C106.589 21.5005 105.976 20.9193 105.301 20.4181L105.857 19.6563C106.556 20.1671 107.206 20.7837 107.844 21.5426L107.125 22.1491ZM91.8895 23.2896L91.2322 22.6134C91.9171 21.9518 92.5903 21.3511 93.2345 20.8331L93.8265 21.5673C93.2041 22.0693 92.5526 22.6482 91.8895 23.2896ZM113.111 23.5449L112.335 23.011C112.792 22.3464 113.296 21.5629 113.772 20.8171L114.568 21.3235C114.086 22.078 113.577 22.8688 113.111 23.5449ZM71.2364 23.867C70.3931 23.739 69.5413 23.676 68.6885 23.6784V22.7353C69.6171 22.7353 70.5239 22.802 71.3815 22.9355L71.2364 23.867ZM63.6391 24.4547L63.3677 23.5522C64.2289 23.2924 65.1062 23.0898 65.994 22.9457L66.1406 23.8772C65.295 24.0147 64.4594 24.2076 63.6391 24.4547ZM75.981 25.5676C75.2592 25.1284 74.4939 24.7652 73.6972 24.4837L74.0121 23.5943C74.8704 23.8979 75.695 24.2893 76.4729 24.7623L75.981 25.5676ZM110.669 25.8766C109.899 25.8766 109.333 25.1642 108.671 24.2327L109.44 23.6871C109.75 24.1224 110.324 24.9306 110.659 24.9335C110.655 24.9335 110.749 24.8668 110.825 24.8189L111.507 25.4399C111.303 25.643 111.063 25.8766 110.669 25.8766ZM58.8625 26.4324L58.4257 25.5966C59.2155 25.1834 60.0225 24.8038 60.8445 24.459L61.2072 25.3296C60.4411 25.6488 59.6504 26.0203 58.8625 26.4324ZM88.368 27.1433L87.6425 26.5426C88.2461 25.8142 88.8163 25.1555 89.3837 24.533L90.0801 25.1671C89.5244 25.7794 88.9629 26.4251 88.368 27.1433ZM79.6955 28.9977C79.1868 28.3162 78.6187 27.6811 77.9979 27.0998L78.6392 26.4077C79.2762 27.0026 79.8842 27.6816 80.4486 28.4303L79.6955 28.9977ZM54.4298 29.1558L53.8857 28.3854C54.6106 27.8723 55.3514 27.3821 56.1071 26.9155L56.6019 27.7194C55.8749 28.1677 55.1436 28.6509 54.4298 29.1558ZM85.231 31.1625L84.4837 30.5865L84.7841 30.1614C85.1468 29.6854 85.5487 29.1631 85.9811 28.6088L86.724 29.1892C86.2945 29.7406 85.8955 30.2629 85.5328 30.7345L85.231 31.1625ZM82.9515 33.458C82.4146 33.458 82.0954 32.9037 81.473 31.7995C81.3598 31.6007 81.2379 31.3845 81.1059 31.1567L81.9213 30.6823C82.0563 30.9144 82.1796 31.1335 82.2942 31.3352C82.5873 31.8561 82.921 32.4437 83.0632 32.5409C83.1116 32.4896 83.1629 32.4411 83.217 32.3959C83.217 32.3959 83.7858 32.8166 83.7583 32.8282C83.7583 32.8282 83.4869 33.458 82.9515 33.458Z" fill="#B0B7C3"/>
</g>
<defs>
<clipPath id="clip0_7431_171">
<rect width="162.509" height="81.2544" fill="white" transform="translate(0 0.143311)"/>
</clipPath>
</defs>
</svg>
