
<svg width="150" height="150" viewBox="0 0 123 123" fill="none" xmlns="http://www.w3.org/2000/svg">
<mask id="mask0_6566_600" style="mask-type:alpha" maskUnits="userSpaceOnUse" x="0" y="0" width="123" height="123">
<path d="M9.00576 95.4617C9.54559 95.2225 9.95559 94.8672 10.2494 94.4025C10.5364 93.9379 10.6868 93.3912 10.6868 92.7762C10.6868 92.0382 10.4749 91.4164 10.0581 90.9107C9.64126 90.405 9.09459 90.077 8.41809 89.9199C7.97393 89.8174 7.11976 89.7627 5.86926 89.7627H3.61426V101.065H4.74176V95.817H5.37726L9.44309 101.065H10.8439L6.77809 95.817C7.72793 95.8239 8.46593 95.7009 9.00576 95.4617ZM4.74176 94.7237V90.8834H6.73709C7.50926 90.8834 8.06276 90.9517 8.39759 91.0815C8.73243 91.2182 8.99893 91.4369 9.20393 91.7444C9.40893 92.0519 9.51143 92.4004 9.51143 92.7762C9.51143 93.1657 9.40893 93.521 9.21076 93.8354C9.00576 94.1497 8.72559 94.382 8.36343 94.5255C8.00126 94.669 7.44093 94.7374 6.68926 94.7374L4.74176 94.7237Z" fill="#020203"/>
<path d="M19.8842 89.7695L14.5405 101.072H15.7979L17.5609 97.3545H22.433L24.2097 101.072H25.4329L20.1644 89.7695H19.8842ZM18.0802 96.268L20.014 92.1749L21.941 96.268H18.0802Z" fill="#020203"/>
<path d="M35.0824 95.4617C35.6223 95.2225 36.0323 94.8672 36.3261 94.4025C36.6131 93.9379 36.7634 93.3912 36.7634 92.7762C36.7634 92.0382 36.5516 91.4164 36.1348 90.9107C35.7179 90.405 35.1713 90.077 34.4948 89.9199C34.0506 89.8174 33.1964 89.7627 31.9459 89.7627H29.6909V101.065H30.8184V95.817H31.4539L35.5198 101.065H36.9206L32.8548 95.817C33.7978 95.8239 34.5426 95.7009 35.0824 95.4617ZM30.8184 94.7237V90.8834H32.8138C33.5859 90.8834 34.1394 90.9517 34.4743 91.0815C34.8091 91.2182 35.0756 91.4369 35.2806 91.7444C35.4856 92.0519 35.5881 92.4004 35.5881 92.7762C35.5881 93.1657 35.4856 93.521 35.2874 93.8354C35.0824 94.1497 34.8023 94.382 34.4401 94.5255C34.0779 94.669 33.5176 94.7374 32.7659 94.7374L30.8184 94.7237Z" fill="#020203"/>
<path d="M41.6216 101.079H48.0586V99.9717H42.7559V95.53H48.0586V94.423H42.7559V90.8765H48.0996V89.7695H41.6216V101.079Z" fill="#020203"/>
<path d="M64.7455 95.4617C65.2853 95.2225 65.6953 94.8672 65.9892 94.4025C66.2762 93.9379 66.4265 93.3912 66.4265 92.7762C66.4265 92.0382 66.2147 91.4164 65.7978 90.9107C65.3742 90.405 64.8343 90.077 64.1578 89.9199C63.7137 89.8174 62.8595 89.7627 61.609 89.7627H59.354V101.065H60.4815V95.817H61.117L65.1828 101.065H66.5837L62.5178 95.817C63.4677 95.8239 64.2057 95.7009 64.7455 95.4617ZM60.4815 94.7237V90.8834H62.4768C63.249 90.8834 63.8025 90.9517 64.1373 91.0815C64.4722 91.2182 64.7387 91.4369 64.9437 91.7444C65.1487 92.0519 65.2512 92.4004 65.2512 92.7762C65.2512 93.1657 65.1487 93.521 64.9505 93.8354C64.7455 94.1497 64.4653 94.382 64.1032 94.5255C63.741 94.669 63.1807 94.7374 62.429 94.7374L60.4815 94.7237Z" fill="#020203"/>
<path d="M75.6244 89.7695L70.2808 101.072H71.5381L73.3011 97.3545H78.1733L79.9499 101.072H81.1731L75.9046 89.7695H75.6244ZM73.8204 96.268L75.7543 92.1749L77.6813 96.268H73.8204Z" fill="#020203"/>
<path d="M91.1633 95.6189C90.849 95.3524 90.3912 95.1132 89.8103 94.915C90.2818 94.6622 90.644 94.3274 90.89 93.9105C91.136 93.5005 91.259 93.0427 91.259 92.537C91.259 91.9972 91.1223 91.512 90.8422 91.0679C90.562 90.6305 90.1793 90.3025 89.701 90.0907C89.2227 89.8789 88.5325 89.7695 87.6305 89.7695H85.4028V101.072H88.5052C89.619 101.072 90.5142 100.758 91.177 100.129C91.8398 99.5002 92.1747 98.7349 92.1747 97.826C92.1747 97.3819 92.0858 96.965 91.9082 96.5824C91.7237 96.2134 91.4777 95.8854 91.1633 95.6189ZM86.503 90.8765H87.815C88.6077 90.8765 89.1817 91.0269 89.5438 91.3207C89.906 91.6145 90.0837 92.0245 90.0837 92.537C90.0837 92.9197 89.9743 93.2682 89.7625 93.5894C89.5438 93.9037 89.2568 94.136 88.8878 94.2795C88.5188 94.423 87.938 94.4982 87.1522 94.4982H86.503V90.8765ZM90.644 98.9672C90.4117 99.3089 90.1042 99.5617 89.7147 99.7257C89.332 99.8897 88.7238 99.9649 87.897 99.9649H86.4962V95.6325H87.1385C88.0952 95.6325 88.7648 95.6804 89.1475 95.7692C89.7215 95.9059 90.1725 96.1655 90.5005 96.5345C90.8285 96.9104 90.9925 97.3477 90.9925 97.8465C90.9993 98.2565 90.8832 98.6255 90.644 98.9672Z" fill="#020203"/>
<path d="M102.636 95.6189C102.322 95.3524 101.864 95.1132 101.283 94.915C101.754 94.6622 102.117 94.3274 102.363 93.9105C102.609 93.5005 102.732 93.0427 102.732 92.537C102.732 91.9972 102.595 91.512 102.315 91.0679C102.035 90.6305 101.652 90.3025 101.174 90.0907C100.695 89.8789 100.005 89.7695 99.1032 89.7695H96.8755V101.072H99.9778C101.092 101.072 101.987 100.758 102.65 100.129C103.312 99.5002 103.647 98.7349 103.647 97.826C103.647 97.3819 103.558 96.965 103.381 96.5824C103.203 96.2134 102.957 95.8854 102.636 95.6189ZM97.9757 90.8765H99.2877C100.08 90.8765 100.654 91.0269 101.016 91.3207C101.379 91.6145 101.556 92.0245 101.556 92.537C101.556 92.9197 101.447 93.2682 101.235 93.5894C101.016 93.9037 100.729 94.136 100.36 94.2795C99.9915 94.423 99.4107 94.4982 98.6248 94.4982H97.9757V90.8765ZM102.123 98.9672C101.891 99.3089 101.584 99.5617 101.194 99.7257C100.811 99.8897 100.203 99.9649 99.3765 99.9649H97.9757V95.6325H98.618C99.5747 95.6325 100.244 95.6804 100.627 95.7692C101.201 95.9059 101.652 96.1655 101.98 96.5345C102.308 96.9104 102.472 97.3477 102.472 97.8465C102.472 98.2565 102.356 98.6255 102.123 98.9672Z" fill="#020203"/>
<path d="M109.286 89.7695H108.158V101.072H109.286V89.7695Z" fill="#020203"/>
<path d="M113.193 89.7695V90.8765H115.715V101.079H116.87V90.8765H119.384V89.7695H113.193Z" fill="#020203"/>
<path d="M83.5508 27.682L80.6125 26.001L70.8477 34.529L70.8067 34.5631L63.8503 46.3916H61.1375L54.1948 34.6041L44.3685 25.9941L41.437 27.6751L42.5303 41.7245L49.4388 48.4006L52.466 53.5256V58.6506L49.309 62.4705L49.5823 70.4176L56.6958 74.7841H58.2948L61.5338 78.0368H63.454L66.693 74.7841H68.292L75.4055 70.4176L75.672 62.4705L72.515 58.6506V53.5461L75.5627 48.387L82.3892 41.7928L82.3823 41.786L82.4507 41.7176L83.5508 27.682ZM81.863 41.3896L73.7177 45.5921L71.5993 47.2731L73.909 36.2305L80.756 26.7868L82.9085 28.0168L81.863 41.3896ZM71.9 58.6438L70.137 60.5981H68.6952L68.3125 59.3613L71.9 54.4003V58.6438ZM75.0912 47.9838L72.3715 52.569L71.4627 48.1751L74.032 46.132L80.4212 42.8315L75.0912 47.9838ZM71.2918 34.9595L78.8427 28.3653L73.3692 35.923L73.3145 36.0391L70.8203 47.9838V48.1068L71.7565 52.6305L64.4312 46.624L71.2918 34.9595ZM60.5567 46.6308L53.2518 52.6441L54.188 48.1205V47.9975L51.6938 36.0528L51.6392 35.9366L46.1862 28.4131L53.6892 34.9663L60.5567 46.6308ZM44.553 42.8246L50.9695 46.1388L53.5388 48.182L52.63 52.5963L49.9445 48.0521L44.553 42.8246ZM53.081 54.4003L56.6685 59.3681L56.2858 60.605H54.844L53.081 58.6506V54.4003ZM42.0793 28.0236L44.2387 26.7868L51.0925 36.2441L53.4022 47.2868L51.3317 45.64L43.118 41.3965L42.0793 28.0236ZM63.1943 77.4218H61.7867L59.7298 75.3581L61.3972 76.0483L62.3948 75.2488L63.3925 76.0483L65.381 75.2215L63.1943 77.4218ZM74.7973 70.0623L68.1143 74.1623H67.1508L69.5015 71.9551L69.7885 66.8575L65.75 63.8098L65.8935 56.8876L68.3125 54.5711L67.882 54.127L65.2785 56.6211L65.1282 64.1105L69.153 67.1513L68.8933 71.675L66.1942 74.2101L63.4882 75.3308L62.6955 74.6953V71.0873L65.0735 69.4883V68.067H64.4517V69.1603L62.388 70.5475L60.3243 69.1603V68.067H59.7025V69.4883L62.0737 71.0873V74.6953L61.281 75.3308L58.5819 74.217L58.534 74.1691H58.5272L55.8758 71.6818L55.6162 67.1581L59.641 64.1173L59.4907 56.628L56.8872 54.1338L56.4567 54.578L58.8757 56.8945L59.0192 63.8166L54.9807 66.8643L55.2677 71.962L57.6183 74.1691H56.8462L50.1632 70.0691L49.9103 62.6891L52.7598 59.2383L54.5433 61.22H56.7163L57.3313 59.252L53.1698 53.4915L61.0418 47.0066H63.8913L71.777 53.4778L67.6087 59.252L68.2237 61.22H70.3967L72.1802 59.2383L75.0297 62.6891L74.7973 70.0623Z" fill="#020203"/>
<path d="M88.8198 57.0584C88.8949 57.6324 88.9496 58.2064 89.0111 58.7736C89.0931 59.4911 89.2913 59.5936 90.0361 59.2998C89.4894 58.2338 90.0976 56.8671 89.1068 55.8968C89.1888 55.8216 89.2503 55.7669 89.3186 55.7123C89.9746 55.1588 90.1044 54.4413 89.9199 53.6554C89.7354 52.8764 89.2024 52.4049 88.4098 52.3093C87.7674 52.2341 87.1183 52.2478 86.4691 52.2341C85.9224 52.2204 85.3689 52.2341 84.8359 52.2341C84.8359 54.6804 84.8359 57.0311 84.8359 59.4023C85.1024 59.4023 85.3211 59.4023 85.6081 59.4023C85.6081 58.3636 85.6081 57.3591 85.6081 56.3409C86.4964 56.3409 87.3233 56.3204 88.1433 56.3478C88.5601 56.3478 88.7651 56.6621 88.8198 57.0584ZM85.6354 55.4458C85.6354 54.6531 85.6354 53.8536 85.6354 53.0199C86.4964 53.0199 87.3369 52.9653 88.1638 53.0404C88.8129 53.0951 89.1409 53.6008 89.1341 54.2568C89.1273 54.9059 88.8129 55.3774 88.1843 55.4321C87.3506 55.5004 86.5101 55.4458 85.6354 55.4458Z" fill="#020203"/>
<path d="M36.6947 52.2886C35.902 52.3843 35.369 52.8558 35.1845 53.6348C35 54.4206 35.123 55.145 35.7859 55.6916C35.8542 55.7463 35.9157 55.8078 35.9977 55.8761C35.0069 56.8465 35.615 58.22 35.0684 59.286C35.8132 59.5866 36.0114 59.4773 36.0934 58.7598C36.1549 58.1858 36.2095 57.6118 36.2847 57.0378C36.3394 56.6483 36.5444 56.334 36.968 56.3203C37.7949 56.293 38.6217 56.3135 39.51 56.3135C39.51 57.3316 39.51 58.3361 39.51 59.3816C39.797 59.3816 40.0225 59.3816 40.289 59.3816C40.289 57.0105 40.289 54.653 40.289 52.1998C39.756 52.1998 39.2025 52.193 38.649 52.1998C37.993 52.2271 37.337 52.2135 36.6947 52.2886ZM39.4759 55.4388C38.6012 55.4388 37.7539 55.4935 36.9202 55.4183C36.2915 55.3636 35.9772 54.8921 35.9704 54.243C35.9635 53.5801 36.2915 53.0813 36.9407 53.0198C37.7744 52.9446 38.6149 52.9993 39.4759 52.9993C39.4759 53.8466 39.4759 54.6461 39.4759 55.4388Z" fill="#020203"/>
<path d="M57.8976 28.0851C60.9179 28.0851 63.9041 28.0851 66.8834 28.0851C67.0542 26.8141 67.0542 26.8141 67.9084 26.6842C67.9084 25.1057 67.9084 23.5272 67.9084 21.9214C67.1772 22.6252 66.4734 23.3017 65.7286 24.0261C65.1956 23.3837 64.6694 22.7482 64.1159 22.0786C63.5351 22.7277 62.9816 23.3564 62.4007 24.0056C61.8199 23.3564 61.2664 22.7346 60.6856 22.0786C60.1321 22.7482 59.5991 23.3906 59.0387 24.0671C58.2939 23.3496 57.5901 22.6662 56.8931 21.9897C56.8931 23.5477 56.8931 25.1262 56.8931 26.7184C57.9454 26.6706 57.8156 27.4632 57.8976 28.0851ZM57.4466 25.9052C57.4329 25.0852 57.4397 24.2652 57.4397 23.3427C58.0206 23.9304 58.5194 24.4429 59.0524 24.9827C59.6127 24.3062 60.1457 23.6707 60.6924 23.0079C61.2596 23.6434 61.8131 24.2652 62.3939 24.9144C62.9679 24.2721 63.5214 23.6502 64.0954 23.0079C64.6421 23.6639 65.1614 24.2926 65.7012 24.9486C66.2342 24.4156 66.7467 23.9031 67.3481 23.3017C67.3481 24.2721 67.3549 25.1262 67.3412 25.9804C67.3412 26.0556 67.2524 26.1512 67.1772 26.1991C66.5691 26.6022 66.4734 26.7389 66.3162 27.4906C63.7127 27.4906 61.0956 27.4906 58.4716 27.4906C58.3691 26.9166 58.1572 26.4246 57.5832 26.1786C57.5081 26.1444 57.4466 26.0009 57.4466 25.9052Z" fill="#020203"/>
</mask>
<g mask="url(#mask0_6566_600)">
<rect x="-19.2188" y="-58.425" width="230.625" height="217.172" fill="#B0B7C3"/>
</g>
</svg>
