
<svg width="197" height="58" viewBox="0 0 197 58" fill="none" xmlns="http://www.w3.org/2000/svg">
<mask id="mask0_6566_575" style="mask-type:alpha" maskUnits="userSpaceOnUse" x="0" y="0" width="197" height="58">
<g clip-path="url(#clip0_6566_575)">
<path d="M95.6329 40.3131C97.1793 36.8109 98.7253 33.3065 100.271 29.7997C100.662 28.9125 101.019 28.0089 101.466 27.1508C101.78 26.5496 101.657 26.2169 101.123 25.827C98.981 24.2464 96.8762 22.6132 94.7539 21.0057C94.3295 20.73 93.9804 20.3529 93.7382 19.9085C93.598 19.6324 93.5623 19.315 93.6376 19.0147C93.7129 18.7144 93.8942 18.4514 94.148 18.2741C94.9792 17.5305 95.7964 16.7671 96.5855 15.9802C97.5194 15.0463 97.4214 14.4544 96.2481 13.8171C95.3087 13.3658 94.3221 13.0204 93.3063 12.7873C88.3391 11.3795 83.3661 9.99154 78.4012 8.44943L92.4098 8.91641L92.4915 8.73187L77.6763 0.170335L77.7533 -0.00708008L115.746 10.4386C115.572 10.8927 115.183 11.0516 114.882 11.2862C112.155 13.4062 109.444 15.5505 106.667 17.6028C105.861 18.197 105.935 18.5367 106.523 19.2115C108.079 21.0057 109.541 22.8805 111.076 24.6981C111.463 25.1545 111.454 25.4149 111.015 25.8328C105.93 30.6728 100.855 35.5241 95.7917 40.3866L95.6329 40.3131Z" fill="#141746"/>
<path d="M123.555 47.6113C123.324 48.1246 122.923 48.5427 122.419 48.7952C121.916 49.0478 121.342 49.1195 120.792 48.9982C117.794 48.5558 114.745 48.5869 111.757 49.0904C111.336 49.245 110.992 49.5596 110.801 49.9659C110.61 50.3722 110.587 50.8373 110.737 51.2605C110.955 51.6248 111.321 51.4568 111.617 51.4568C115.578 51.4568 119.54 51.4567 123.5 51.403C124.317 51.3925 124.702 51.5677 124.586 52.4537C124.482 53.237 124.497 54.0343 124.414 54.82C124.207 56.7648 124.029 57.0379 122.163 57.4115C117.998 58.0509 113.753 57.9445 109.625 57.0974C109.976 56.4829 110.524 56.0051 111.181 55.7417C111.838 55.4782 112.565 55.4447 113.243 55.6465C115.946 56.1125 118.71 56.0943 121.407 55.5927C121.619 55.5221 121.815 55.4086 121.982 55.2591C122.149 55.1097 122.283 54.9275 122.377 54.7241C122.47 54.5206 122.521 54.3001 122.525 54.0762C122.53 53.8523 122.489 53.6298 122.404 53.4226C122.183 53.0852 121.811 53.2393 121.51 53.2416C117.621 53.2708 113.731 53.2755 109.844 53.3794C108.807 53.4074 108.56 53.0548 108.596 52.1057C108.638 51.0551 108.696 50.0232 108.841 48.9878C108.858 48.5775 109.023 48.1873 109.306 47.8895C109.589 47.5917 109.97 47.4066 110.379 47.3685C113.743 46.7255 117.187 46.6196 120.584 47.0546C121.592 47.1296 122.588 47.3163 123.555 47.6113Z" fill="#F37D20"/>
<path d="M33.2736 56.745C28.711 58.0782 23.8755 58.1713 19.265 57.0146C18.9703 56.9682 18.7008 56.821 18.5024 56.5981C18.3041 56.3752 18.189 56.0905 18.177 55.7924C17.6901 53.3872 17.7116 50.9067 18.2401 48.5102C18.3568 48.0573 18.4292 47.6756 19.0385 47.5308C23.6809 46.4463 28.507 46.4132 33.1639 47.4339C32.1471 48.3993 31.4127 49.2621 29.8006 48.9516C26.9261 48.4028 23.9704 48.4402 21.1107 49.0613C20.7268 49.2459 20.412 49.5483 20.212 49.9244C20.0121 50.3005 19.9375 50.7307 19.9993 51.1521C20.1475 51.5443 20.4826 51.3855 20.7371 51.3855C22.6457 51.3995 24.5556 51.4276 26.4573 51.3763C27.2254 51.3564 27.5371 51.5105 27.5149 52.3674C27.4962 53.1437 27.3526 53.4379 26.5063 53.4063C24.6723 53.3375 22.8337 53.3608 20.9974 53.4063C20.6741 53.4145 19.9841 53.0223 20.0285 53.7823C20.0623 54.3741 19.8476 55.1749 20.8819 55.3582C23.884 55.9954 26.9802 56.0524 30.0037 55.5262C31.4291 55.2379 32.2089 55.8975 33.2736 56.745Z" fill="#141746"/>
<path d="M69.46 52.4152C69.46 54.0355 69.4157 55.6582 69.4775 57.2774C69.5149 58.2522 68.86 57.9555 68.4012 57.9509C67.9424 57.9462 67.2805 58.2707 67.3144 57.2878C67.3716 55.6325 67.3074 53.9737 67.3412 52.3172C67.354 51.7335 67.1696 51.5443 66.5754 51.4439C63.1534 50.9081 59.6664 50.9428 56.2558 51.5467C55.6125 51.6506 55.3791 51.8875 55.406 52.5693C55.4655 54.0799 55.3698 55.5975 55.4456 57.107C55.4877 57.9662 55.0253 57.9637 54.4568 57.896C53.9712 57.8388 53.2603 58.2322 53.2731 57.1839C53.3128 53.8701 53.3128 50.556 53.2731 47.2414C53.2626 46.283 53.8907 46.5573 54.3646 46.5561C54.8386 46.5549 55.476 46.2772 55.455 47.2403C55.441 47.9559 55.0896 48.9587 55.7071 49.3299C56.1951 49.6241 57.087 49.2014 57.8084 49.164C60.5747 48.9453 63.3553 48.9845 66.1143 49.2809C66.9712 49.3976 67.5327 49.338 67.3214 48.2629C67.3069 48.1192 67.3069 47.9745 67.3214 47.8309C67.3141 47.604 67.3679 47.3793 67.4773 47.1803C67.5866 46.9813 67.7475 46.8154 67.9429 46.6999C68.1384 46.5844 68.3613 46.5234 68.5884 46.5236C68.8154 46.5238 69.0383 46.585 69.2335 46.7009C69.6106 46.8737 69.4565 47.1924 69.46 47.4469C69.4682 49.1011 69.46 50.7576 69.46 52.4152Z" fill="#141746"/>
<path d="M112.053 0.0874028C112.367 0.170287 112.784 0.274222 113.197 0.389792C115.892 1.14392 118.588 1.89098 121.277 2.66612C121.627 2.76652 122.137 2.73391 122.211 3.24055C122.278 3.67715 121.851 3.82416 121.582 4.04013C120.316 5.04757 119.024 6.0247 117.775 7.04849C117.551 7.25194 117.276 7.39069 116.98 7.44992C116.683 7.50914 116.376 7.48656 116.091 7.38465C113.197 6.54881 110.291 5.75619 107.391 4.93319C107.061 4.8398 106.641 4.80008 106.531 4.38099C106.414 3.93739 106.792 3.7518 107.064 3.53467C108.329 2.52606 109.604 1.52909 110.872 0.526309C111.03 0.378163 111.216 0.263099 111.418 0.187724C111.621 0.11235 111.837 0.0782095 112.053 0.0874028Z" fill="#141746"/>
<path d="M50.762 47.6372C50.3932 48.2201 49.8469 48.6692 49.2035 48.9183C48.5602 49.1673 47.8538 49.2031 47.1886 49.0204C44.4501 48.5377 41.645 48.5772 38.9213 49.1371C38.6383 49.1536 38.3718 49.2763 38.1753 49.4806C37.9788 49.6849 37.8667 49.9558 37.8613 50.2393C37.7014 51.56 37.6705 52.8931 37.7691 54.2199C37.8099 55.1702 38.2687 55.4726 39.1372 55.5858C41.9846 56.056 44.8899 56.056 47.7373 55.5858C49.207 55.2928 49.9764 56.1088 51.0538 56.8431C47.7716 57.7966 44.3431 58.1447 40.9362 57.8704C39.5023 57.7429 38.0847 57.4726 36.7044 57.0637C36.4965 57.0309 36.306 56.9284 36.1642 56.7728C36.0224 56.6173 35.9379 56.418 35.9246 56.208C35.5417 53.6403 35.5748 51.0278 36.0226 48.4707C36.0868 48.0948 36.1546 47.72 36.6717 47.6021C41.2436 46.534 45.9969 46.506 50.581 47.5203C50.6477 47.5484 50.709 47.588 50.762 47.6372Z" fill="#141746"/>
<path d="M71.8893 53.4447C71.8893 52.115 71.8624 50.7831 71.8974 49.4535C71.87 48.9293 72.0487 48.4151 72.3953 48.0209C72.742 47.6267 73.229 47.3838 73.7524 47.344C75.3412 47.0382 76.9527 46.8649 78.5702 46.8257C80.9433 46.7272 83.3198 46.8995 85.6538 47.3393C86.1541 47.3776 86.6209 47.6054 86.9589 47.9761C87.2969 48.3469 87.4806 48.8327 87.4726 49.3343C87.7388 51.9971 87.4633 54.6565 87.5602 57.3146C87.594 58.2088 86.9695 57.9169 86.5306 57.9473C86.0741 57.98 85.6141 58.0757 85.6258 57.3029C85.655 55.469 85.6176 53.6326 85.5709 51.7986C85.5137 49.5549 85.2569 49.2959 83.0833 49.0519C80.5755 48.8065 78.0487 48.8279 75.5455 49.116C74.4739 49.2234 73.959 49.6694 73.98 50.8111C74.0174 52.8248 73.9497 54.8397 73.938 56.8546C73.938 57.4663 74.0769 58.0546 73.0613 57.9858C72.2068 57.9297 71.6465 57.9087 71.7667 56.788C71.8344 55.6744 71.8429 54.558 71.7924 53.4435L71.8893 53.4447Z" fill="#141746"/>
<path d="M6.18082 53.2182C6.18082 51.9948 6.1318 50.7668 6.19834 49.5481C6.23803 48.815 5.89715 48.5989 5.28077 48.5546C4.41711 48.5609 3.55649 48.6568 2.71259 48.8406C1.91761 48.9456 1.06426 49.2515 0.377836 48.5114C0.178215 48.2989 -0.054124 48.0864 0.0112492 47.7712C0.0824594 47.421 0.408151 47.413 0.689489 47.3593C3.47713 46.7852 6.33026 46.5958 9.1693 46.7965C10.4231 46.8992 11.6851 46.9915 12.9213 47.2133C13.3532 47.2904 14.2579 47.0206 14.1167 47.9954C14.0206 48.3624 13.7842 48.6771 13.4585 48.8716C13.1327 49.0662 12.7437 49.125 12.375 49.0355C11.3459 48.7089 10.2658 48.5737 9.18804 48.6364C8.46427 48.6702 8.20039 48.9351 8.21439 49.6869C8.25992 52.1384 8.19107 54.5829 8.25294 57.0286C8.27512 57.9298 7.80935 57.882 7.18831 57.8983C6.52057 57.9146 6.11078 57.8492 6.16215 56.9947C6.23686 55.7409 6.18082 54.4778 6.18082 53.2182Z" fill="#161947"/>
<path d="M196.597 47.6185C196.325 48.1871 195.858 48.6392 195.281 48.8926C194.703 49.146 194.054 49.184 193.451 48.9995C190.604 48.3516 190.582 48.4519 190.582 51.3587C190.582 53.1938 190.547 55.0301 190.598 56.8629C190.62 57.6135 190.327 57.7594 189.664 57.7454C189.041 57.7325 188.662 57.6707 188.673 56.8932C188.709 54.4826 188.649 52.0708 188.704 49.6555C188.723 48.7975 188.426 48.5803 187.644 48.7146C186.861 48.8488 186.072 48.8943 185.294 49.0274C183.696 49.3017 183.52 49.234 182.418 47.6113C187.092 46.6069 191.925 46.6094 196.597 47.6185Z" fill="#F37D21"/>
<path d="M160.909 48.6424C160.917 48.3416 160.812 48.0488 160.613 47.8227C160.414 47.5967 160.138 47.4541 159.838 47.4236C155.45 46.5727 150.937 46.5806 146.551 47.4469C146.325 47.4696 146.115 47.5739 145.96 47.7405C145.805 47.9071 145.717 48.1244 145.711 48.3517C145.342 50.7709 145.319 53.2301 145.641 55.6559C145.746 56.6564 146.15 57.0848 147.149 57.1653C148.148 57.2458 149.127 57.5156 150.121 57.6557C153.402 58.1535 156.75 57.9675 159.955 57.1093C160.233 57.0648 160.487 56.9248 160.672 56.7134C160.858 56.502 160.964 56.2325 160.972 55.9513C161.111 54.8461 161.183 53.7335 161.189 52.6196C161.19 51.2889 161.096 49.9598 160.909 48.6424ZM159.022 54.6077C159.013 54.818 158.928 55.0179 158.782 55.17C158.637 55.3221 158.441 55.416 158.231 55.4342C154.907 56.0673 151.491 56.0467 148.175 55.3735C147.749 55.2999 147.651 55.0233 147.609 54.7046C147.357 53.0692 147.377 51.4035 147.669 49.7747C147.765 49.2774 148.034 49.1432 148.475 49.1058C150.013 48.9786 151.549 48.8315 152.75 48.7229C154.444 48.7729 156.133 48.908 157.813 49.1279C158.535 49.2365 158.92 49.4981 159.008 50.3211C159.219 51.7419 159.223 53.1857 159.02 54.6077H159.022Z" fill="#F37D20"/>
<path d="M105.734 48.5021C105.721 48.2218 105.605 47.9563 105.407 47.7569C105.21 47.5576 104.945 47.4388 104.665 47.4235C102.543 47.0239 100.39 46.8028 98.2308 46.7627C96.0007 46.8194 93.7772 47.0317 91.5767 47.3978C91.2965 47.4096 91.0314 47.5275 90.835 47.7276C90.6386 47.9277 90.5256 48.195 90.5191 48.4753C90.2085 50.6518 90.1811 52.8594 90.4373 55.0429C90.6405 56.8594 90.5973 56.8909 92.3297 57.2306C96.4476 58.1939 100.737 58.1473 104.833 57.0951C105.341 56.948 105.704 56.7823 105.8 56.1426C106.14 53.6055 106.117 51.0329 105.734 48.5021ZM103.982 54.4464C103.985 54.6944 103.892 54.934 103.724 55.1157C103.555 55.2975 103.323 55.4077 103.075 55.4236C101.269 55.7574 99.4333 55.9045 97.5969 55.8625C96.1207 55.8226 94.6499 55.6665 93.1982 55.3955C92.7219 55.3126 92.4978 55.1329 92.4312 54.6764C92.1994 53.1061 92.2116 51.5093 92.4674 49.9426C92.4726 49.713 92.5673 49.4946 92.7313 49.3339C92.8953 49.1731 93.1156 49.0829 93.3453 49.0823C96.4187 48.6657 99.5349 48.6739 102.606 49.1069C103.387 49.2236 103.78 49.5003 103.875 50.3536C104.075 51.709 104.111 53.0824 103.982 54.4464Z" fill="#141746"/>
<path d="M179.319 48.4437C179.276 48.1476 179.136 47.874 178.922 47.6653C178.707 47.4566 178.43 47.3245 178.133 47.2891C173.773 46.4798 169.298 46.5194 164.953 47.4058C164.108 47.5553 163.986 48.1261 163.953 48.8066C163.82 51.5383 163.744 54.2712 163.759 57.0075C163.759 57.7196 163.993 57.8994 164.685 57.9345C165.619 57.9835 166.043 57.7208 165.875 56.7437C165.832 56.4997 165.898 56.2371 165.862 55.9896C165.753 55.2401 166.095 55.0651 166.779 55.1619C168.815 55.4214 170.872 55.4811 172.92 55.3405C174.151 55.274 174.986 55.5542 175.432 56.7554C175.86 57.9076 176.729 57.952 177.807 57.6298L176.307 55.191C176.981 55.0661 177.565 54.918 178.157 54.8584C178.477 54.8553 178.785 54.7311 179.018 54.5107C179.251 54.2904 179.393 53.99 179.414 53.6699C179.791 51.9444 179.759 50.1545 179.319 48.4437ZM177.676 52.0088C177.642 52.4044 177.456 52.7715 177.157 53.0328C176.858 53.2941 176.469 53.4292 176.073 53.4096C174.709 53.4796 173.352 53.6968 172.22 53.6338C170.448 53.6597 168.677 53.5262 166.929 53.2346C166.76 53.2311 166.594 53.1924 166.441 53.1212C166.288 53.05 166.151 52.9477 166.04 52.8209C165.928 52.6941 165.844 52.5456 165.793 52.3847C165.743 52.2238 165.726 52.0541 165.744 51.8862C165.744 51.7427 165.726 51.5991 165.72 51.4543C165.648 49.3635 165.906 49.0951 168.003 48.8745C170.689 48.6209 173.393 48.6033 176.083 48.8219C176.494 48.8028 176.895 48.9469 177.199 49.2227C177.504 49.4986 177.687 49.8837 177.708 50.2939C177.807 50.8624 177.796 51.4445 177.676 52.0088Z" fill="#F37D20"/>
<path d="M142.272 48.2256C142.202 47.9867 142.06 47.7747 141.867 47.6174C141.674 47.4601 141.438 47.3649 141.19 47.3442C136.867 46.5416 132.43 46.5932 128.127 47.496C127.405 47.6291 127.223 47.9979 127.154 48.6634C126.858 51.5351 127.038 54.415 126.955 57.2903C126.938 57.9067 127.217 57.9545 127.723 57.9907C128.619 58.0514 129.189 57.8938 128.992 56.8093C128.935 56.4953 129.006 56.1614 128.978 55.8403C128.935 55.3173 129.13 55.1166 129.662 55.2135C131.073 55.388 132.494 55.4622 133.916 55.4353C136.342 55.5105 138.769 55.3607 141.168 54.9882C141.432 54.9787 141.686 54.8834 141.891 54.7168C142.096 54.5502 142.241 54.3213 142.305 54.0648C142.91 52.1636 142.899 50.1198 142.272 48.2256ZM140.816 52.0418C140.809 52.2385 140.763 52.4319 140.679 52.6101C140.596 52.7883 140.477 52.9477 140.33 53.0786C140.183 53.2096 140.011 53.3093 139.824 53.3719C139.637 53.4345 139.44 53.4585 139.244 53.4426C137.701 53.5068 136.163 53.7146 134.656 53.6294C133.13 53.6564 131.605 53.591 130.087 53.4333C129.341 53.3761 128.97 53.0656 128.985 52.2963C129.05 48.9343 128.442 49.1887 131.86 48.821C134.33 48.5627 136.82 48.5748 139.287 48.8572C139.664 48.8536 140.03 48.9915 140.31 49.2436C140.591 49.4958 140.768 49.8439 140.805 50.2195C140.917 50.8218 140.921 51.4381 140.816 52.0418Z" fill="#F37D20"/>
</g>
</mask>
<g mask="url(#mask0_6566_575)">
<rect x="-3.51367" y="-6.11035" width="222.266" height="81.4212" fill="#B0B7C3"/>
</g>
<defs>
<clipPath id="clip0_6566_575">
<rect width="196.597" height="58" fill="white"/>
</clipPath>
</defs>
</svg>
